{
  "accessors": [
    {
      "bufferView": 2,
      "componentType": 5126,
      "count": 305,
      "max": [
        13.413851737976074,
        1.0,
        9.27219009399414
      ],
      "min": [
        -14.893766403198242,
        -1.0,
        -1.1669082641601563
      ],
      "type": "VEC3"
    },
    {
      "bufferView": 2,
      "byteOffset": 3660,
      "componentType": 5126,
      "count": 305,
      "max": [
        0.9313245415687561,
        0.9996692538261414,
        0.99997478723526
      ],
      "min": [
        -1.0,
        -0.9989107847213745,
        -0.9999868869781494
      ],
      "type": "VEC3"
    },
    {
      "bufferView": 3,
      "componentType": 5126,
      "count": 305,
      "max": [
        1.0,
        0.9250991940498352,
        1.0,
        1.0
      ],
      "min": [
        -0.9819289445877075,
        -1.0,
        -0.9974566102027893,
        -1.0
      ],
      "type": "VEC4"
    },
    {
      "bufferView": 1,
      "componentType": 5126,
      "count": 305,
      "max": [
        0.9999591112136841,
        1.0
      ],
      "min": [
        0.03043603152036667,
        0.027353286743164063
      ],
      "type": "VEC2"
    },
    {
      "bufferView": 1,
      "byteOffset": 2440,
      "componentType": 5126,
      "count": 305,
      "max": [
        0.9999591112136841,
        1.0
      ],
      "min": [
        0.03043603152036667,
        0.027353286743164063
      ],
      "type": "VEC2"
    },
    {
      "bufferView": 0,
      "componentType": 5125,
      "count": 570,
      "type": "SCALAR"
    }
  ],
  "asset": {
    "extras": {
      "author": "JoTiNhaa5 (https://sketchfab.com/JoTiNhaa5)",
      "license": "CC-BY-NC-4.0 (http://creativecommons.org/licenses/by-nc/4.0/)",
      "source": "https://sketchfab.com/3d-models/1911-silenced-82863ebd16f64782b4eefd9500433bfa",
      "title": "1911 Silenced"
    },
    "generator": "Sketchfab-15.41.0",
    "version": "2.0"
  },
  "bufferViews": [
    {
      "buffer": 0,
      "byteLength": 2280,
      "name": "floatBufferViews",
      "target": 34963
    },
    {
      "buffer": 0,
      "byteLength": 4880,
      "byteOffset": 2280,
      "byteStride": 8,
      "name": "floatBufferViews",
      "target": 34962
    },
    {
      "buffer": 0,
      "byteLength": 7320,
      "byteOffset": 7160,
      "byteStride": 12,
      "name": "floatBufferViews",
      "target": 34962
    },
    {
      "buffer": 0,
      "byteLength": 4880,
      "byteOffset": 14480,
      "byteStride": 16,
      "name": "floatBufferViews",
      "target": 34962
    }
  ],
  "buffers": [
    {
      "byteLength": 19360,
      "uri": "scene.bin"
    }
  ],
  "extensionsUsed": [
    "KHR_materials_specular"
  ],
  "images": [
    {
      "uri": "textures/1911.Material01_baseColor.png"
    },
    {
      "uri": "textures/1911.Material01_normal.png"
    }
  ],
  "materials": [
    {
      "doubleSided": true,
      "extensions": {
        "KHR_materials_specular": {
          "specularColorFactor": [
            1.0,
            1.0,
            1.0
          ],
          "specularFactor": 0.0
        }
      },
      "name": "1911.Material01",
      "normalTexture": {
        "index": 1,
        "scale": 0.9798125099047921
      },
      "pbrMetallicRoughness": {
        "baseColorTexture": {
          "index": 0
        },
        "metallicFactor": 0.07161926588728651
      }
    }
  ],
  "meshes": [
    {
      "name": "Object_0",
      "primitives": [
        {
          "attributes": {
            "NORMAL": 1,
            "POSITION": 0,
            "TANGENT": 2,
            "TEXCOORD_0": 3,
            "TEXCOORD_1": 4
          },
          "indices": 5,
          "material": 0,
          "mode": 4
        }
      ]
    }
  ],
  "nodes": [
    {
      "children": [
        1
      ],
      "matrix": [
        0.9960296154022217,
        -1.9766991168753118e-17,
        0.08902261406183243,
        0.0,
        0.08902261406183243,
        2.211630024456172e-16,
        -0.9960296154022217,
        0.0,
        0.0,
        1.0,
        2.220446049250313e-16,
        0.0,
        0.0,
        0.0,
        0.0,
        1.0
      ],
      "name": "Sketchfab_model"
    },
    {
      "children": [
        2
      ],
      "name": "root"
    },
    {
      "children": [
        3
      ],
      "matrix": [
        1.0,
        0.0,
        0.0,
        0.0,
        0.0,
        2.220446049250313e-16,
        1.0,
        0.0,
        0.0,
        -1.0,
        2.220446049250313e-16,
        0.0,
        0.0,
        0.0,
        0.0,
        1.0
      ],
      "name": "GLTF_SceneRootNode"
    },
    {
      "children": [
        4
      ],
      "matrix": [
        0.14000000059604645,
        0.0,
        0.0,
        0.0,
        0.0,
        0.14000000059604645,
        0.0,
        0.0,
        0.0,
        0.0,
        0.14000000059604645,
        0.0,
        0.0,
        0.0,
        0.0,
        1.0
      ],
      "name": "1911.Base_0"
    },
    {
      "mesh": 0,
      "name": "Object_4"
    }
  ],
  "samplers": [
    {
      "magFilter": 9728,
      "minFilter": 9728,
      "wrapS": 10497,
      "wrapT": 10497
    }
  ],
  "scene": 0,
  "scenes": [
    {
      "name": "Sketchfab_Scene",
      "nodes": [
        0
      ]
    }
  ],
  "textures": [
    {
      "sampler": 0,
      "source": 0
    },
    {
      "sampler": 0,
      "source": 1
    }
  ]
}
