{
  "accessors": [
    {
      "bufferView": 2,
      "componentType": 5126,
      "count": 16,
      "max": [
        0.7516189813613892,
        0.1100659966468811,
        0.751928985118866
      ],
      "min": [
        -0.5576009750366211,
        -0.25480398535728455,
        -0.36493998765945435
      ],
      "type": "VEC3"
    },
    {
      "bufferView": 2,
      "byteOffset": 192,
      "componentType": 5126,
      "count": 16,
      "max": [
        0.1736479550600052,
        1.776359592257329e-15,
        0.9848077893257141
      ],
      "min": [
        -0.1736479550600052,
        -1.776359592257329e-15,
        -0.9848077893257141
      ],
      "type": "VEC3"
    },
    {
      "bufferView": 3,
      "componentType": 5126,
      "count": 16,
      "max": [
        0.9848078489303589,
        1.0811323307489097e-20,
        0.17364796996116638,
        1.0
      ],
      "min": [
        -0.9848077893257141,
        1.5939690634282107e-22,
        -0.17364798486232758,
        1.0
      ],
      "type": "VEC4"
    },
    {
      "bufferView": 1,
      "componentType": 5126,
      "count": 16,
      "max": [
        0.9994999766349792,
        0.7109500169754028
      ],
      "min": [
        0.00394245982170105,
        0.0005000000237487257
      ],
      "type": "VEC2"
    },
    {
      "bufferView": 0,
      "componentType": 5125,
      "count": 24,
      "type": "SCALAR"
    },
    {
      "bufferView": 2,
      "byteOffset": 384,
      "componentType": 5126,
      "count": 928,
      "max": [
        0.6262180209159851,
        1.0,
        -0.13863900303840637
      ],
      "min": [
        -0.8330230116844177,
        0.10797300189733505,
        -0.770455002784729
      ],
      "type": "VEC3"
    },
    {
      "bufferView": 2,
      "byteOffset": 11520,
      "componentType": 5126,
      "count": 928,
      "max": [
        0.9848087430000305,
        0.9508168697357178,
        0.9292921423912048
      ],
      "min": [
        -0.9849293828010559,
        -0.9651922583580017,
        -0.9511464238166809
      ],
      "type": "VEC3"
    },
    {
      "bufferView": 3,
      "byteOffset": 256,
      "componentType": 5126,
      "count": 928,
      "max": [
        0.9990731477737427,
        0.9997419118881226,
        0.9441617131233215,
        1.0
      ],
      "min": [
        -0.9982773065567017,
        -0.9995056390762329,
        -0.9298734068870544,
        -1.0
      ],
      "type": "VEC4"
    },
    {
      "bufferView": 1,
      "byteOffset": 128,
      "componentType": 5126,
      "count": 928,
      "max": [
        0.8024240136146545,
        0.992231011390686
      ],
      "min": [
        0.005039039999246597,
        0.33042800426483154
      ],
      "type": "VEC2"
    },
    {
      "bufferView": 0,
      "byteOffset": 96,
      "componentType": 5125,
      "count": 1962,
      "type": "SCALAR"
    },
    {
      "bufferView": 2,
      "byteOffset": 22656,
      "componentType": 5126,
      "count": 3603,
      "max": [
        0.8262630105018616,
        0.25939100980758667,
        0.770455002784729
      ],
      "min": [
        -0.8044520020484924,
        -0.3702639937400818,
        -0.37704700231552124
      ],
      "type": "VEC3"
    },
    {
      "bufferView": 2,
      "byteOffset": 65892,
      "componentType": 5126,
      "count": 3603,
      "max": [
        0.9913738965988159,
        1.0,
        0.9989397525787354
      ],
      "min": [
        -0.9913737773895264,
        -1.0,
        -0.9989398717880249
      ],
      "type": "VEC3"
    },
    {
      "bufferView": 3,
      "byteOffset": 15104,
      "componentType": 5126,
      "count": 3603,
      "max": [
        0.9965789914131165,
        0.9999998807907104,
        0.999908447265625,
        1.0
      ],
      "min": [
        -0.9965803027153015,
        -0.9999997615814209,
        -0.9988216161727905,
        -1.0
      ],
      "type": "VEC4"
    },
    {
      "bufferView": 1,
      "byteOffset": 7552,
      "componentType": 5126,
      "count": 3603,
      "max": [
        0.9994999766349792,
        0.6991559863090515
      ],
      "min": [
        0.0005000000237487257,
        0.0005000000237487257
      ],
      "type": "VEC2"
    },
    {
      "bufferView": 0,
      "byteOffset": 7944,
      "componentType": 5125,
      "count": 11694,
      "type": "SCALAR"
    },
    {
      "bufferView": 2,
      "byteOffset": 109128,
      "componentType": 5126,
      "count": 16,
      "max": [
        0.7562440037727356,
        -0.5196700096130371,
        0.6322270035743713
      ],
      "min": [
        -0.5731729865074158,
        -0.8845400214195251,
        -0.2674590051174164
      ],
      "type": "VEC3"
    },
    {
      "bufferView": 2,
      "byteOffset": 109320,
      "componentType": 5126,
      "count": 16,
      "max": [
        7.549790126404332e-08,
        6.123289849463003e-17,
        1.0
      ],
      "min": [
        -7.549790126404332e-08,
        -6.123289849463003e-17,
        -1.0
      ],
      "type": "VEC3"
    },
    {
      "bufferView": 3,
      "byteOffset": 72752,
      "componentType": 5126,
      "count": 16,
      "max": [
        1.0,
        4.622956040840359e-24,
        7.549791547489804e-08,
        1.0
      ],
      "min": [
        -1.0,
        -4.622956040840359e-24,
        -7.549791547489804e-08,
        1.0
      ],
      "type": "VEC4"
    },
    {
      "bufferView": 1,
      "byteOffset": 36376,
      "componentType": 5126,
      "count": 16,
      "max": [
        0.9994999766349792,
        0.7109500169754028
      ],
      "min": [
        0.00394245982170105,
        0.0005000000237487257
      ],
      "type": "VEC2"
    },
    {
      "bufferView": 0,
      "byteOffset": 54720,
      "componentType": 5125,
      "count": 24,
      "type": "SCALAR"
    },
    {
      "bufferView": 2,
      "byteOffset": 109512,
      "componentType": 5126,
      "count": 928,
      "max": [
        0.7903630137443542,
        -0.37034499645233154,
        0.6542209982872009
      ],
      "min": [
        -0.623537003993988,
        -0.5053750276565552,
        -0.28014299273490906
      ],
      "type": "VEC3"
    },
    {
      "bufferView": 2,
      "byteOffset": 120648,
      "componentType": 5126,
      "count": 928,
      "max": [
        1.0,
        1.0,
        1.0
      ],
      "min": [
        -1.0,
        -1.0,
        -1.0
      ],
      "type": "VEC3"
    },
    {
      "bufferView": 3,
      "byteOffset": 73008,
      "componentType": 5126,
      "count": 928,
      "max": [
        1.0,
        1.0,
        0.9958819150924683,
        1.0
      ],
      "min": [
        -0.999999463558197,
        -1.0,
        -0.9890740513801575,
        -1.0
      ],
      "type": "VEC4"
    },
    {
      "bufferView": 1,
      "byteOffset": 36504,
      "componentType": 5126,
      "count": 928,
      "max": [
        0.8024240136146545,
        0.992231011390686
      ],
      "min": [
        0.005039039999246597,
        0.33042800426483154
      ],
      "type": "VEC2"
    },
    {
      "bufferView": 0,
      "byteOffset": 54816,
      "componentType": 5125,
      "count": 1962,
      "type": "SCALAR"
    },
    {
      "bufferView": 2,
      "byteOffset": 131784,
      "componentType": 5126,
      "count": 3673,
      "max": [
        0.8330230116844177,
        -0.37034499645233154,
        0.6517999768257141
      ],
      "min": [
        -0.6661970019340515,
        -1.0,
        -0.2801409959793091
      ],
      "type": "VEC3"
    },
    {
      "bufferView": 2,
      "byteOffset": 175860,
      "componentType": 5126,
      "count": 3673,
      "max": [
        1.0,
        1.0,
        1.0
      ],
      "min": [
        -1.0,
        -1.0,
        -1.0
      ],
      "type": "VEC3"
    },
    {
      "bufferView": 3,
      "byteOffset": 87856,
      "componentType": 5126,
      "count": 3673,
      "max": [
        1.0,
        0.9999997615814209,
        1.0,
        1.0
      ],
      "min": [
        -1.0,
        -0.9999997615814209,
        -1.0,
        -1.0
      ],
      "type": "VEC4"
    },
    {
      "bufferView": 1,
      "byteOffset": 43928,
      "componentType": 5126,
      "count": 3673,
      "max": [
        0.9994999766349792,
        0.6991559863090515
      ],
      "min": [
        0.0005000000237487257,
        0.0005000000237487257
      ],
      "type": "VEC2"
    },
    {
      "bufferView": 0,
      "byteOffset": 62664,
      "componentType": 5125,
      "count": 11694,
      "type": "SCALAR"
    }
  ],
  "asset": {
    "extras": {
      "author": "LuddePudde (https://sketchfab.com/ludde5000)",
      "license": "CC-BY-4.0 (http://creativecommons.org/licenses/by/4.0/)",
      "source": "https://sketchfab.com/3d-models/military-crates-4c9619e4336f4cbe9390d4c679e04fc2",
      "title": "Military Crates"
    },
    "generator": "Sketchfab-12.66.0",
    "version": "2.0"
  },
  "bufferViews": [
    {
      "buffer": 0,
      "byteLength": 109440,
      "name": "floatBufferViews",
      "target": 34963
    },
    {
      "buffer": 0,
      "byteLength": 73312,
      "byteOffset": 109440,
      "byteStride": 8,
      "name": "floatBufferViews",
      "target": 34962
    },
    {
      "buffer": 0,
      "byteLength": 219936,
      "byteOffset": 182752,
      "byteStride": 12,
      "name": "floatBufferViews",
      "target": 34962
    },
    {
      "buffer": 0,
      "byteLength": 146624,
      "byteOffset": 402688,
      "byteStride": 16,
      "name": "floatBufferViews",
      "target": 34962
    }
  ],
  "buffers": [
    {
      "byteLength": 549312,
      "uri": "scene.bin"
    }
  ],
  "images": [
    {
      "uri": "textures/material_baseColor.png"
    },
    {
      "uri": "textures/material_metallicRoughness.png"
    },
    {
      "uri": "textures/material_normal.png"
    },
    {
      "uri": "textures/decals_baseColor.png"
    },
    {
      "uri": "textures/decals_metallicRoughness.png"
    },
    {
      "uri": "textures/decals_normal.png"
    },
    {
      "uri": "textures/decals2_baseColor.png"
    },
    {
      "uri": "textures/decals2_metallicRoughness.png"
    },
    {
      "uri": "textures/decals2_normal.png"
    }
  ],
  "materials": [
    {
      "alphaMode": "BLEND",
      "doubleSided": true,
      "name": "material",
      "normalTexture": {
        "index": 2
      },
      "occlusionTexture": {
        "index": 1
      },
      "pbrMetallicRoughness": {
        "baseColorTexture": {
          "index": 0
        },
        "metallicRoughnessTexture": {
          "index": 1
        }
      }
    },
    {
      "alphaMode": "BLEND",
      "doubleSided": true,
      "name": "decals",
      "normalTexture": {
        "index": 5
      },
      "occlusionTexture": {
        "index": 4
      },
      "pbrMetallicRoughness": {
        "baseColorTexture": {
          "index": 3
        },
        "metallicRoughnessTexture": {
          "index": 4
        }
      }
    },
    {
      "alphaMode": "BLEND",
      "doubleSided": true,
      "name": "decals2",
      "normalTexture": {
        "index": 8
      },
      "pbrMetallicRoughness": {
        "baseColorTexture": {
          "index": 6
        },
        "metallicRoughnessTexture": {
          "index": 7
        }
      }
    }
  ],
  "meshes": [
    {
      "name": "defaultMaterial",
      "primitives": [
        {
          "attributes": {
            "NORMAL": 1,
            "POSITION": 0,
            "TANGENT": 2,
            "TEXCOORD_0": 3
          },
          "indices": 4,
          "material": 2,
          "mode": 4
        }
      ]
    },
    {
      "name": "defaultMaterial",
      "primitives": [
        {
          "attributes": {
            "NORMAL": 6,
            "POSITION": 5,
            "TANGENT": 7,
            "TEXCOORD_0": 8
          },
          "indices": 9,
          "material": 0,
          "mode": 4
        }
      ]
    },
    {
      "name": "defaultMaterial",
      "primitives": [
        {
          "attributes": {
            "NORMAL": 11,
            "POSITION": 10,
            "TANGENT": 12,
            "TEXCOORD_0": 13
          },
          "indices": 14,
          "material": 0,
          "mode": 4
        }
      ]
    },
    {
      "name": "defaultMaterial",
      "primitives": [
        {
          "attributes": {
            "NORMAL": 16,
            "POSITION": 15,
            "TANGENT": 17,
            "TEXCOORD_0": 18
          },
          "indices": 19,
          "material": 1,
          "mode": 4
        }
      ]
    },
    {
      "name": "defaultMaterial",
      "primitives": [
        {
          "attributes": {
            "NORMAL": 21,
            "POSITION": 20,
            "TANGENT": 22,
            "TEXCOORD_0": 23
          },
          "indices": 24,
          "material": 0,
          "mode": 4
        }
      ]
    },
    {
      "name": "defaultMaterial",
      "primitives": [
        {
          "attributes": {
            "NORMAL": 26,
            "POSITION": 25,
            "TANGENT": 27,
            "TEXCOORD_0": 28
          },
          "indices": 29,
          "material": 0,
          "mode": 4
        }
      ]
    }
  ],
  "nodes": [
    {
      "children": [
        1
      ],
      "matrix": [
        1.0,
        0.0,
        0.0,
        0.0,
        0.0,
        2.220446049250313e-16,
        -1.0,
        0.0,
        0.0,
        1.0,
        2.220446049250313e-16,
        0.0,
        0.0,
        0.0,
        0.0,
        1.0
      ],
      "name": "Sketchfab_model"
    },
    {
      "children": [
        2,
        4,
        6,
        8,
        10,
        12
      ],
      "matrix": [
        1.0,
        0.0,
        0.0,
        0.0,
        0.0,
        -4.371139006309477e-08,
        0.999999999999999,
        0.0,
        0.0,
        -0.999999999999999,
        -4.371139006309477e-08,
        0.0,
        0.0,
        0.0,
        0.0,
        1.0
      ],
      "name": "Collada visual scene group"
    },
    {
      "children": [
        3
      ],
      "name": "Object016"
    },
    {
      "mesh": 0,
      "name": "defaultMaterial"
    },
    {
      "children": [
        5
      ],
      "name": "Object015"
    },
    {
      "mesh": 1,
      "name": "defaultMaterial"
    },
    {
      "children": [
        7
      ],
      "name": "Object014"
    },
    {
      "mesh": 2,
      "name": "defaultMaterial"
    },
    {
      "children": [
        9
      ],
      "name": "Object013"
    },
    {
      "mesh": 3,
      "name": "defaultMaterial"
    },
    {
      "children": [
        11
      ],
      "name": "Object010"
    },
    {
      "mesh": 4,
      "name": "defaultMaterial"
    },
    {
      "children": [
        13
      ],
      "name": "Object009"
    },
    {
      "mesh": 5,
      "name": "defaultMaterial"
    }
  ],
  "samplers": [
    {
      "magFilter": 9729,
      "minFilter": 9987,
      "wrapS": 10497,
      "wrapT": 10497
    }
  ],
  "scene": 0,
  "scenes": [
    {
      "name": "Sketchfab_Scene",
      "nodes": [
        0
      ]
    }
  ],
  "textures": [
    {
      "sampler": 0,
      "source": 0
    },
    {
      "sampler": 0,
      "source": 1
    },
    {
      "sampler": 0,
      "source": 2
    },
    {
      "sampler": 0,
      "source": 3
    },
    {
      "sampler": 0,
      "source": 4
    },
    {
      "sampler": 0,
      "source": 5
    },
    {
      "sampler": 0,
      "source": 6
    },
    {
      "sampler": 0,
      "source": 7
    },
    {
      "sampler": 0,
      "source": 8
    }
  ]
}
